<svg xmlns="http://www.w3.org/2000/svg" viewBox="0 0 64 64" width="64" height="64" aria-hidden="true">
  <defs>
    <linearGradient id="g" x1="0" y1="0" x2="1" y2="1">
      <stop offset="0%" stop-color="#6366f1"/>
      <stop offset="100%" stop-color="#22d3ee"/>
    </linearGradient>
  </defs>
  <rect rx="14" ry="14" x="4" y="4" width="56" height="56" fill="url(#g)"/>
  <g fill="#ffffff">
    <path d="M18 34c0-8 6-14 14-14s14 6 14 14-6 14-14 14h-8a2 2 0 0 1 0-4h8c5.523 0 10-4.477 10-10s-4.477-10-10-10-10 4.477-10 10a2 2 0 0 1-4 0Z"/>
    <path d="M22 30a2 2 0 0 1 2-2h8a2 2 0 1 1 0 4h-8a2 2 0 0 1-2-2Z"/>
  </g>
</svg>

